<svg xmlns="http://www.w3.org/2000/svg" viewBox="0 0 58 58"><path fill="#fff" d="M21 14h-5V9a1 1 0 10-2 0v5H9a1 1 0 100 2h5v5a1 1 0 102 0v-5h5a1 1 0 100-2zm28 0H37a1 1 0 100 2h12a1 1 0 100-2zM30 0H0v58h58V0H30zM2 2h26v26H2V2zm0 54V30h26v26H2zm54 0H30V30h26v26zM30 28V2h26v26H30zm7 19h12a1 1 0 100-2H37a1 1 0 100 2zm0-6h12a1 1 0 100-2H37a1 1 0 100 2zm-16.293-3.707a.999.999 0 00-1.414 0L15 41.586l-4.293-4.293a.999.999 0 10-1.414 1.414L13.586 43l-4.293 4.293a.999.999 0 101.414 1.414L15 44.414l4.293 4.293a.997.997 0 001.414 0 .999.999 0 000-1.414L16.414 43l4.293-4.293a.999.999 0 000-1.414z"/></svg>