<svg xmlns="http://www.w3.org/2000/svg" viewBox="0 0 62 58"><path d="M9.37 39.56l-2.39-5.09v23.47L31.5 58v-2.46l-22.13-.05V39.56zm32.84-25.98v1.27h2.4V10L34.87 0H7v6.81h2.36V2.46h23v11.12zM34.75 3.35L42.21 11v.1h-7.46zm23.73 13.59H37.16c-1.75 0-3.81 1.09-3.81 4.14V58H62V21.05a4.25 4.25 0 00-3.52-4.11zm1.6 39H35.23V21.05a1.79 1.79 0 011.9-2.05h21.09a2.24 2.24 0 011.87 2.06v34.86zM37.47 32.98h9.04v2.58h-9.04zm11.32 0h9.04v2.58h-9.04zm-11.22 4.81h3.64v3.96h-3.64zm5.38 0h3.64v3.96h-3.64zm5.57 0h3.64v3.96h-3.64zm5.7 0h3.64v3.96h-3.64zm-16.65 5.57h3.64v3.97h-3.64zm5.38 0h3.64v3.97h-3.64zm5.46 0h3.64v3.97h-3.64zm5.71 0h3.64v3.97h-3.64zm-16.67 5.58h3.64v3.96h-3.64zm5.38 0h3.64v3.96h-3.64zm5.69 0h3.64v3.96h-3.64zm5.6 0h3.64v3.96h-3.64zm3.71-26.51H37.45v7.62h20.38zm-9.29 5.81h-1v-2.18h-.84v-.78a1.46 1.46 0 00.36 0 .89.89 0 00.33-.14.79.79 0 00.23-.25.94.94 0 00.11-.39h.81zm4.08 0h-3a1.64 1.64 0 01.05-.51 1.3 1.3 0 01.2-.43 2.34 2.34 0 01.25-.3 3.73 3.73 0 01.3-.26l.34-.24.34-.21.14-.1.16-.12.12-.15a.37.37 0 000-.18.39.39 0 00-.41-.46.44.44 0 00-.42.21 1.17 1.17 0 00-.11.56h-.93a1.88 1.88 0 01.07-.69 1.22 1.22 0 01.29-.51 1.13 1.13 0 01.47-.32 1.81 1.81 0 01.63-.11 2 2 0 01.57.07 1.35 1.35 0 01.45.22 1 1 0 01.29.37 1.29 1.29 0 01.1.53 1.17 1.17 0 01-.14.61 1.73 1.73 0 01-.37.44 3.49 3.49 0 01-.49.33c-.18.1-.35.21-.52.32h1.57v.93zm3.24-.77a1.06 1.06 0 01-.23.39 1.41 1.41 0 01-.45.3 1.79 1.79 0 01-.7.12 2.1 2.1 0 01-.66-.09 1.4 1.4 0 01-.44-.23 1.12 1.12 0 01-.27-.31 1.81 1.81 0 01-.13-.34 1.13 1.13 0 010-.3v-.21h1a.62.62 0 00.13.46.35.35 0 00.18.13.88.88 0 00.24 0 .54.54 0 00.33-.09.37.37 0 00.04-.3.39.39 0 000-.2.29.29 0 00-.1-.12.34.34 0 00-.15-.06h-.46v-.72h.45a.3.3 0 00.16-.05.35.35 0 00.11-.1.3.3 0 000-.18.26.26 0 000-.15.27.27 0 00-.11-.1.59.59 0 00-.14-.06h-.16a.63.63 0 00-.19 0 .38.38 0 00-.15.09.53.53 0 00-.11.15.66.66 0 000 .21H53a1.61 1.61 0 01.12-.58 1.19 1.19 0 01.32-.41 1.61 1.61 0 01.45-.24 2 2 0 01.56-.08 1.65 1.65 0 01.63.11 1.26 1.26 0 01.41.26.87.87 0 01.23.32.88.88 0 01.07.28 1.08 1.08 0 01-.08.46.66.66 0 01-.15.24.38.38 0 01-.16.09h-.07.1l.14.08a.64.64 0 01.13.15.67.67 0 01.11.24 1.16 1.16 0 010 .35.89.89 0 01.05.49zM22.28 51l-.1-12-10.54-22.62-3.37-7.25L0 13.23l3.39 7.24 10.5 22.43zm-4.92-8.16l.25-2.55 2.26 1.31L21 38.37l.35.73.05 6.84-2.05 1-4.71-4.5-.47-1zM3.54 16.73l-1.26-2.68 5.19-2.57 1.25 2.68z" fill="#369fd7"/></svg>