<svg xmlns="http://www.w3.org/2000/svg" viewBox="0 0 56 58"><path d="M44.92 13.22L33.29.29a.82.82 0 00-.63-.29H16a5.13 5.13 0 00-5.13 5.11v11.11l-9.18 5.55a3.55 3.55 0 00-1.69 3v26.39A6.85 6.85 0 006.86 58h42.28A6.85 6.85 0 0056 51.16V24.78a3.52 3.52 0 00-1.69-3l-8.88-5.47h-.09l-.21-.1v-2.44a.86.86 0 00-.21-.55zM33.48 2.94l7.81 8.68H37a3.49 3.49 0 01-3.49-3.49zM16 1.63h15.84v6.5A5.14 5.14 0 0037 13.25h5.78l.75.83v18.85L28 42.37l-15.5-9.44V5.11A3.5 3.5 0 0116 1.63zM2.54 23.16l8.33-5v13.8L1.63 26.3v-1.52a1.92 1.92 0 01.91-1.62zm46.6 33.21H6.86a5.22 5.22 0 01-5.23-5.21V28.21L11.12 34a.74.74 0 00.32.19L27.57 44a.83.83 0 00.86 0l16.13-9.84a.74.74 0 00.32-.19l9.49-5.78v22.97a5.22 5.22 0 01-5.23 5.21zm4.32-33.21a1.92 1.92 0 01.91 1.62v1.52l-9.24 5.63V18zM26 27.44a.82.82 0 001.13.1L32 23.59a.82.82 0 00-1-1.27l-4.26 3.46-1.57-1.84a.81.81 0 00-1.17-.09.8.8 0 00-.1 1.14zm2 7.7a10.21 10.21 0 10-10.24-10.21A10.23 10.23 0 0028 35.14zm0-18.79a8.59 8.59 0 11-8.6 8.58 8.59 8.59 0 018.6-8.58zm12.31 7.77a.81.81 0 00-.81.81.82.82 0 00.81.82h1.8a.82.82 0 00.82-.82.82.82 0 00-.82-.81zM14 25.75h1.8a.82.82 0 00.82-.82.82.82 0 00-.82-.81H14a.81.81 0 00-.81.81.82.82 0 00.81.82zm27.5 3.62l-2.5-.86a.81.81 0 00-.54 1.49l2.51.87a.82.82 0 001-.51.8.8 0 00-.51-1zM14.63 20.5l2.51.86a.81.81 0 00.55-1.53L15.16 19a.81.81 0 00-1 .5.82.82 0 00.47 1zm24.22 1.29a.69.69 0 00.25 0l2.53-.79a.82.82 0 00-.48-1.56l-2.54.79a.81.81 0 00.24 1.59zM17 28.11l-2.54.79a.81.81 0 00.54 1.55l2.53-.78a.82.82 0 00-.53-1.56z" fill="#369fd7"/></svg>