<svg xmlns="http://www.w3.org/2000/svg" viewBox="0 0 44 44"><defs><style>.cls-1{fill:#3b4457}.cls-2{fill:#369fd7}</style></defs><g id="Page-1"><path id="Shape" class="cls-1" d="M4.4 35.92h22.73a.73.73 0 000-1.46H4.4a2.93 2.93 0 01-2.93-2.93V4.4A2.93 2.93 0 014.4 1.47h30.06a2.93 2.93 0 012.93 2.93v25.66a.74.74 0 001.47 0V4.4a4.41 4.41 0 00-4.4-4.4H4.4A4.4 4.4 0 000 4.4v27.13a4.4 4.4 0 004.4 4.39z"/><path class="cls-2" d="M6.6 12.46a3.61 3.61 0 002.59-1.07l2.07-2.07a3.67 3.67 0 00-5.18-5.19L4 6.21a3.66 3.66 0 002.6 6.25zm2.07-7.93a2.2 2.2 0 011.56 3.75l-.52.52L6.6 5.69l.52-.52a2.2 2.2 0 011.55-.64zM5 7.24l.52-.52 3.15 3.11-.52.52a2.25 2.25 0 01-3.11 0A2.21 2.21 0 015 7.24zm27.26 5.22a3.66 3.66 0 002.59-6.25l-2.07-2.08a3.67 3.67 0 00-5.19 5.19l2.08 2.07a3.6 3.6 0 002.59 1.07zm1.55-2.11a2.25 2.25 0 01-3.11 0l-.52-.52 3.11-3.11.52.52a2.19 2.19 0 010 3.11zm-5.18-5.18a2.19 2.19 0 013.11 0l.52.52-3.11 3.11-.52-.52a2.2 2.2 0 010-3.11z"/><path class="cls-1" d="M2.93 31.53A1.47 1.47 0 004.4 33h19.79a.73.73 0 100-1.46H4.4V15.4h30.06v11.73a.73.73 0 101.46 0V15.4a1.46 1.46 0 00-1.46-1.47H4.4a1.47 1.47 0 00-1.47 1.47zm23.39-10.39a.67.67 0 00-.25-.16l-6.74-2.6a.76.76 0 00-.16 0 .62.62 0 00-.24 0h-.08a.56.56 0 00-.17.09l-4.87 4.06a.53.53 0 01-.65 0 .51.51 0 01-.17-.62 2 2 0 00-3-2.39l-1.54 1.1a.75.75 0 00-.17 1 .73.73 0 001 .17l1.54-1.1a.52.52 0 01.79.63 2 2 0 003.12 2.29l4.08-3.39L21 26.07a.71.71 0 00.12.18l16.59 16.6a3.67 3.67 0 105.18-5.19L26.33 21.14zm-4.38 3.35l-.61-1.57a4.65 4.65 0 001.59-1.59l1.57.61zm-.42-3.69a3.33 3.33 0 01-.73.72l-.45-1.18zm20.36 21.08a2.25 2.25 0 01-3.11 0L22.7 25.81l3.11-3.11 16.07 16.07a2.21 2.21 0 010 3.11z"/><path class="cls-2" d="M25.29 25.29a.73.73 0 00.52 1.25.73.73 0 00.67-.45.72.72 0 00-.15-.8.73.73 0 00-1.04 0zm3.11 4.15a.74.74 0 00.8.16.75.75 0 00.45-.68.73.73 0 10-1.25.52zm-2.07-1.04a.72.72 0 001 0l1-1a.73.73 0 00-1-1l-1 1a.73.73 0 000 1z"/><path class="cls-1" d="M16.86 6.6h4.4a.74.74 0 000-1.47h-4.4a.74.74 0 000 1.47zm0 2.2h4.4a.74.74 0 000-1.47h-4.4a.74.74 0 000 1.47z"/></g></svg>