<svg xmlns="http://www.w3.org/2000/svg" viewBox="0 0 65 65"><path d="M32.5 18.87A2.1 2.1 0 0134.6 21h2.09a4.19 4.19 0 00-3.14-4v-2.32h-2.1v2.24a4.19 4.19 0 001.05 8.24 2.1 2.1 0 11-2.1 2.1h-2.09a4.18 4.18 0 003.14 4v2.25h2.1V31.3a4.19 4.19 0 00-1-8.24 2.1 2.1 0 110-4.19zM65 27.26v-8.39h-6.29V0h-42.4l-10 11.13v7.74H0v8.39h6.29v3.55l-4-1.46H0v23.07h9.16l.55-1.76 4.43 2.66 2.94.76a3.15 3.15 0 00-.31 1.36 3.27 3.27 0 003.16 3.26 3.27 3.27 0 003.26 3.15 3.14 3.14 0 001.09-.2A3.26 3.26 0 0027.39 64a3.3 3.3 0 001.93-.65l.78.78a3.12 3.12 0 002.22.92h.18a3.14 3.14 0 003-2.08 3.11 3.11 0 005.32-1.31A3.09 3.09 0 0045 59.51a3.11 3.11 0 001.17.25 3.15 3.15 0 003.14-3.15v-.35a3.13 3.13 0 00-.63-1.88l-.34-.47 3.89-3.11.51 1.62H65V29.35h-2.1l-4.19 1.19v-3.28zM16.77 2.62v7.86H9.69zm-8.38 10h10.48V2.1h37.74v16.77h-6.29v-4.06L38 23.06l12.37 8.25v-4h6.29v3.88l-9.7 2.74.9 2.91-13.07.87a7.17 7.17 0 00-2.79.76l-2.3 1.07a7.34 7.34 0 00-3.2-.75h-7.38l-4.93-2.47.74-2.32-6.54-2.42v-4.32h6.29v4l12.37-8.25-12.37-8.2v4.06H8.39zM2.1 25.16V21h14.67v-2.27l6.5 4.33-6.5 4.34v-2.24zm5.52 25.16H2.1v-18.8l10.23 3.72zm7.46 1.12l-4.73-2.84 3.2-10.25 5.07 2.54h7.88a5.22 5.22 0 012.78.79L35 45.25a1.39 1.39 0 01.67 1.2v.36a1.43 1.43 0 01-1.42 1.42 1.35 1.35 0 01-.75-.23l-3.93-2.36a4.16 4.16 0 00-5 .62l-6 6zm18.47 10.41a1 1 0 01-1 1h-.18a1.05 1.05 0 01-.74-.3l-.87-.87a1 1 0 01-.36-.68v-.18a1 1 0 011.05-1.05h.18a1 1 0 01.74.31l.87.86a1.06 1.06 0 01.31.75zm5.24-1a1.06 1.06 0 01-1.89.63l-2.09-2.8a1 1 0 01-.21-.68v-.35a1 1 0 011.88-.65l2.1 2.8a1 1 0 01.21.63zM43 58.71a1 1 0 01-1.88.63L39 56.54a1 1 0 01-.21-.63v-.35a1.05 1.05 0 011.89-.62l2.09 2.79a1 1 0 01.21.63zm4.2-2.1a1 1 0 01-1 1 1 1 0 01-.84-.42l-2.1-2.79a1.11 1.11 0 01-.21-.63v-.35a1 1 0 011.05-1 1.07 1.07 0 01.84.42L47 55.63a1.11 1.11 0 01.21.63zm-.2-4.37l-.49-.66A3.14 3.14 0 0041 52.66a3.25 3.25 0 00-1.16-.24 3.14 3.14 0 00-3 2.34 3.09 3.09 0 00-1.16-.24 3.15 3.15 0 00-3.15 3.14v.14a3.17 3.17 0 00-.87-.14h-.18a3.15 3.15 0 00-3.14 3.15V61a2.58 2.58 0 000 .39l-.13.13a1.19 1.19 0 01-.83.34 1.17 1.17 0 01-.84-2l4.59-4.59-1.48-1.49L24 59.41a1.17 1.17 0 01-1.66-1.66L28 52.11l-1.48-1.48-5.64 5.64a1.18 1.18 0 01-2-.83 1.16 1.16 0 01.34-.83l6.85-6.85a2 2 0 012.43-.3l3.93 2.36a3.51 3.51 0 005.32-3v-.36a3.49 3.49 0 00-1.65-3l-4.25-2.66 1-.52a5.36 5.36 0 012-.54l13.58-.9 3.06 9.8zm15.9-20.75v18.83h-8.66l-4.69-15zm-14.67-6.33v2.24l-6.5-4.34 6.5-4.33V21H62.9v4.19zM21 4.19h33.52v2.1H21zm0 4.2h33.52v2.09H21z" fill="#369fd7"/></svg>