<svg xmlns="http://www.w3.org/2000/svg" viewBox="0 0 42.88 48.88"><defs><style>.cls-1{fill:none;stroke-linecap:round;stroke-linejoin:round;stroke-width:1.88px;stroke:#3b4457}</style></defs><path class="cls-1" d="M41.32 14.27L22.94 25.41a3.19 3.19 0 01-3 0L1.56 14.27a1 1 0 010-1.81L19.94 1.32a3.19 3.19 0 013 0l18.38 11.14a1 1 0 010 1.81z"/><path d="M41.32 17.92a1 1 0 010 1.82L23.44 30.57l-.5.31a3.19 3.19 0 01-3 0L1.56 19.73a1 1 0 010-1.81M41.32 29a1 1 0 010 1.81L23.44 41.69l-.5.3a3.19 3.19 0 01-3 0L1.56 30.85a1 1 0 010-1.81" stroke="#369fd7" fill="none" stroke-linecap="round" stroke-linejoin="round" stroke-width="1.88"/><path class="cls-1" d="M41.32 23.34a1 1 0 010 1.81L23.44 36l-.5.3a3.19 3.19 0 01-3 0L1.56 25.14a1 1 0 010-1.81m39.76 11.28a1 1 0 010 1.81L23.44 47.26l-.5.31a3.19 3.19 0 01-3 0L1.56 36.43a1 1 0 010-1.82"/></svg>