<svg id="Слой_1" data-name="Слой 1" xmlns="http://www.w3.org/2000/svg" viewBox="0 0 30 30"><defs><style>.cls-1{fill:#00a0da}</style></defs><path class="cls-1" d="M21.89 16.28c-.21-.27-.16-.45 0-.73a16.28 16.28 0 011-1.42c1.33-1.79 2.18-3 2-3.9a.59.59 0 00-.58-.47h-3.95a.58.58 0 00-.55.42 16.77 16.77 0 01-1.24 2.67c-.78 1.38-1.3 1.81-1.48 1.89a1.45 1.45 0 01-.2-.78 12.34 12.34 0 010-1.81 7.73 7.73 0 000-1.82c-.06-.16 0-.7-.52-.82a12.18 12.18 0 00-2.31-.21c-1.59 0-2.06.21-2.29.41a.59.59 0 00-.19.56.6.6 0 00.39.44c.36.12.48.27.59 1a9.23 9.23 0 010 1.92c-.09 1-.33 1.16-.35 1.18s-.44-.19-1.15-1.62c-.61-1.23-1.12-2.72-1.36-3.33a.58.58 0 00-.54-.38h-3.5a.59.59 0 00-.48.26.58.58 0 00-.06.54 26.7 26.7 0 004.12 7.79 8.64 8.64 0 006.89 3.13.58.58 0 00.59-.58 3 3 0 01.36-1.73c.13-.24.25-.34.31-.35a.42.42 0 01.28.12 4.55 4.55 0 01.88.92A4.72 4.72 0 0020 20.91a3.76 3.76 0 001.38.27h2.93a.58.58 0 00.58-.61c-.04-1.73-2.47-3.57-3-4.29zM21.41 20a2.2 2.2 0 01-.83-.15 3.62 3.62 0 01-1.11-1 5.75 5.75 0 00-1.09-1.12 1.45 1.45 0 00-2.32.62 3.65 3.65 0 00-.49 1.65 7.4 7.4 0 01-5.45-2.72 23.94 23.94 0 01-3.6-6.64h2.24C9.64 13 10.77 16 12.22 16a1.22 1.22 0 00.92-.43c.95-1.1.57-4 .57-4a3.3 3.3 0 00-.3-1.06 15.57 15.57 0 012.33.1 8.54 8.54 0 010 1.5c-.08 1.42-.17 2.9.59 3.57a1.92 1.92 0 00.71.28c.48 0 1.26-.21 2.52-2.4a19.6 19.6 0 001.24-2.59h2.8a17 17 0 01-1.66 2.51c-.45.61-.84 1.14-1.07 1.54A1.7 1.7 0 0021 17c.56.71 2 1.81 2.6 3z"/><path class="cls-1" d="M27.07 0H2.93A2.93 2.93 0 000 2.93v24.14A2.93 2.93 0 002.93 30h24.14A2.93 2.93 0 0030 27.07V2.93A2.93 2.93 0 0027.07 0zm1.76 27.07a1.76 1.76 0 01-1.76 1.76H2.93a1.76 1.76 0 01-1.76-1.76V2.93a1.76 1.76 0 011.76-1.76h24.14a1.76 1.76 0 011.76 1.76z"/></svg>