<svg xmlns="http://www.w3.org/2000/svg" viewBox="0 0 16 11.82"><path d="M1.54 3.64l1.83 1.2 2.34 1.53.37.26.49.37.43.22a2.79 2.79 0 00.51.23 1.55 1.55 0 00.49.07 1.55 1.55 0 00.45-.07A2.79 2.79 0 009 7.22L9.43 7l.49-.32.37-.26 4.18-2.73a4 4 0 001.09-1A2.13 2.13 0 0016 1.34a1.27 1.27 0 00-.42-.95 1.45 1.45 0 00-1-.39H1.43A1.32 1.32 0 00.37.44 1.6 1.6 0 000 1.53a1.87 1.87 0 00.49 1.14 4.11 4.11 0 001.05.97zm13.57.9q-2.94 1.86-4.45 2.9c-.34.23-.61.42-.83.55a5.59 5.59 0 01-.84.4A2.66 2.66 0 018 8.6a2.66 2.66 0 01-1-.21A5.59 5.59 0 016.17 8c-.22-.13-.49-.32-.83-.55-.8-.57-2.28-1.53-4.44-2.91a4.29 4.29 0 01-.9-.73v6.67a1.27 1.27 0 00.42.95 1.44 1.44 0 001 .39h13.15a1.44 1.44 0 001-.39 1.27 1.27 0 00.42-.95V3.81a5 5 0 01-.88.73z" fill="#369fd7"/></svg>