<svg xmlns="http://www.w3.org/2000/svg" viewBox="0 0 20 20"><path fill="#fff" d="M12.63 17.56A8 8 0 014.33 16l.67-.36c.45-.26.45-.67 0-.92L1.82 13a.52.52 0 00-.84.48L.9 17.05c0 .52.35.72.8.47l.89-.52a10 10 0 007.13 3 10.08 10.08 0 002.93-.44c1.97-.51.99-2.4-.02-2zM2 9.5a7.68 7.68 0 015.76-6.31V1.24A9.64 9.64 0 00.12 8.62C-.57 11 1.88 10.52 2 9.5zm6.63-4.67L11.82 3a.52.52 0 000-1L8.6.12c-.46-.27-.84-.07-.83.46v3.79c.02.52.39.73.86.46zm11 9.09L18 13l1 .57a9.06 9.06 0 00.51-3 9.32 9.32 0 00-3.41-7.18c-1-.87-2.47.08-1.53 1.24a7.45 7.45 0 013 5.94 7.17 7.17 0 01-.29 2l-.86-.49c-.45-.26-.81-.05-.8.47l.06 3.56a.51.51 0 00.83.49l3.16-1.74c.44-.27.44-.68 0-.94z"/></svg>