<svg id="Слой_1" data-name="Слой 1" xmlns="http://www.w3.org/2000/svg" viewBox="0 0 30 30"><defs><style>.cls-1{fill:#00a0da}</style></defs><path class="cls-1" d="M4.39 30h21.22A4.4 4.4 0 0030 25.61V4.39A4.4 4.4 0 0025.61 0H4.39A4.4 4.4 0 000 4.39v21.22A4.4 4.4 0 004.39 30zM1.76 4.39a2.63 2.63 0 012.63-2.63h21.22a2.63 2.63 0 012.63 2.63v21.22a2.63 2.63 0 01-2.63 2.63H4.39a2.63 2.63 0 01-2.63-2.63z"/><path class="cls-1" d="M15 22.91A7.91 7.91 0 107.09 15 7.92 7.92 0 0015 22.91zm0-14.06A6.15 6.15 0 118.85 15 6.16 6.16 0 0115 8.85zm8.79 0a2.64 2.64 0 10-2.64-2.64 2.65 2.65 0 002.64 2.64zm0-3.52a.88.88 0 010 1.76.88.88 0 110-1.76z"/></svg>