<svg xmlns="http://www.w3.org/2000/svg" viewBox="0 0 49.16 43.16"><defs><style>.cls-1{fill:none;stroke-linecap:round;stroke-linejoin:round;stroke-width:2.16px;stroke:#3b4457}</style></defs><path class="cls-1" d="M47.37 16.38L26.29 29.16a3.6 3.6 0 01-3.43 0L1.79 16.38a1.12 1.12 0 010-2.09L22.86 1.51a3.65 3.65 0 013.43 0l21.08 12.78a1.12 1.12 0 010 2.09z"/><path d="M47.37 20.57a1.12 1.12 0 010 2.08l-20.5 12.44-.58.34a3.6 3.6 0 01-3.43 0L1.79 22.64a1.12 1.12 0 010-2.08" stroke="#369fd7" fill="none" stroke-linecap="round" stroke-linejoin="round" stroke-width="2.16"/><path class="cls-1" d="M47.37 26.78a1.12 1.12 0 010 2.08L26.87 41.3l-.58.35a3.65 3.65 0 01-3.43 0L1.79 28.85a1.12 1.12 0 010-2.08"/></svg>