<svg xmlns="http://www.w3.org/2000/svg" viewBox="0 0 59 51"><path d="M39.8 8.3L34.18.48a1.14 1.14 0 00-.93-.48 1.17 1.17 0 00-.94.48L26.69 8.3a1.19 1.19 0 00-.21.68v37.68A4.32 4.32 0 0030.79 51h4.92A4.32 4.32 0 0040 46.66V9a1.2 1.2 0 00-.2-.7zm-6.55-5.17L36.75 8h-7zm-4.47 7.19h5.47v29.92h-2V18.18a1.15 1.15 0 10-2.3 0v22.06h-1.17V10.32zm8.94 36.34a2 2 0 01-2 2h-4.93a2 2 0 01-2-2v-4.1h8.94zm0-6.42h-1.16V10.32h1.16zm-5.5-26.93a1.66 1.66 0 00-.06-.21 1.28 1.28 0 00-.11-.2.86.86 0 00-.14-.18 1.24 1.24 0 00-.18-.14.78.78 0 00-.2-.11l-.21-.07a1.69 1.69 0 00-.45 0l-.22.07a1 1 0 00-.2.11l-.17.14a.9.9 0 00-.15.18 1.24 1.24 0 00-.1.2 1.72 1.72 0 00-.07.21 1.79 1.79 0 000 .23 1.16 1.16 0 001.15 1.15h.23l.21-.07a.75.75 0 00.2-.1.84.84 0 00.18-.15 1.15 1.15 0 00.14-.17 1.28 1.28 0 00.11-.2 1.41 1.41 0 00.06-.22.82.82 0 000-.22.9.9 0 00-.02-.25zm-21.01 8.33v-.18a1.65 1.65 0 011.65-1.65l3.51-.15a3.75 3.75 0 000-7.5H8.54a1.44 1.44 0 01-1-2.45 1.39 1.39 0 011-.4h6.91a4.66 4.66 0 000-9.31H7.6a1.16 1.16 0 000 2.31h7.81a2.35 2.35 0 010 4.69H8.55a3.63 3.63 0 00-2.63 1.06 3.75 3.75 0 002.62 6.41h7.85a1.44 1.44 0 010 2.88h-.05l-3.51.15a4 4 0 00-3.93 4v.18a10.09 10.09 0 00-8.9 10v9.26a10.06 10.06 0 1020.12 0v-9.28a10.1 10.1 0 00-8.91-10.02zm-8.91 10A7.78 7.78 0 018.91 24v9.42H2.3zm15.51 9.26a7.76 7.76 0 11-15.51 0v-5.2h15.51zm0-7.53h-6.6V24a7.78 7.78 0 016.6 7.69zM4.29.93a.9.9 0 00-.06-.22 2 2 0 00-.11-.2 1.16 1.16 0 00-1-.51 1.13 1.13 0 00-.81.34 1.15 1.15 0 00-.14.17 1 1 0 00-.11.2A1.87 1.87 0 002 .93a1.64 1.64 0 000 .23 1.64 1.64 0 000 .22 1.87 1.87 0 00.07.22 1 1 0 00.11.2 1.15 1.15 0 00.17.2 1.22 1.22 0 00.17.15l.2.1.22.07h.22a1.16 1.16 0 001-.51 2 2 0 00.11-.2.9.9 0 00.06-.22.83.83 0 000-.22.85.85 0 00-.04-.24zM59 11.53a7.1 7.1 0 00-2.6-5.16c-1.19-1.17-1.91-1.88-1.23-4.2a1.62 1.62 0 00-.4-1.84 1.68 1.68 0 00-2 0 16.43 16.43 0 00-4.7 4.52c-1.38 1.87-3 4.66-2.86 7.37a7.56 7.56 0 002.35 5.2A5.66 5.66 0 0047 23v22.54a5 5 0 109.94 0V23.71a5.75 5.75 0 00.84-3 5.58 5.58 0 00-1.08-3.31 7.5 7.5 0 002.3-5.87zm-4.4 34a2.67 2.67 0 11-5.33 0v-20a5.62 5.62 0 002 .71h2.17a5.24 5.24 0 001.17-.41v19.71zm-.91-21.89l-.1.05h-2.53a3.35 3.35 0 01-2.25-3.15 3.29 3.29 0 011.29-2.63l.09-.07.17-.11.07-.05.23-.13.14-.06a1.34 1.34 0 01.26-.09h.08l.17-.05h1.78l.24.09a3 3 0 01.4.21l.09.05.15.11.1.07a3.32 3.32 0 01-.48 5.55zM55 15.85h-.08l-.18-.1-.1-.05c-.2-.1-.42-.19-.63-.27l-.33-.1a5.42 5.42 0 00-.7-.14h-1.62a5.82 5.82 0 00-1 .24l-.3.11-.31.14h-.07l-.2.11h-.06a5.27 5.27 0 01-1.79-3.76c-.08-1.66.89-3.93 2.66-6.22A17.89 17.89 0 0152.7 3.2 5.57 5.57 0 0054.78 8a4.9 4.9 0 011.91 3.62A5.21 5.21 0 0155 15.85z" fill="#369fd7"/></svg>