<svg data-name="Слой 1" xmlns="http://www.w3.org/2000/svg" viewBox="0 0 30 30"><path d="M4.39 30h9.79V19.34h-3.52v-3.52h3.52v-4.39A4.4 4.4 0 0118.57 7H23v3.52h-3.55a1.75 1.75 0 00-1.75 1.78v3.52h5.11l-.59 3.52H17.7V30h7.91A4.4 4.4 0 0030 25.61V4.39A4.4 4.4 0 0025.61 0H4.39A4.4 4.4 0 000 4.39v21.22A4.4 4.4 0 004.39 30zM1.76 4.39a2.63 2.63 0 012.63-2.63h21.22a2.63 2.63 0 012.63 2.63v21.22a2.63 2.63 0 01-2.63 2.63h-6.16v-7.15h4.26l1.18-7h-5.44V12.3h5.28v-7h-6.16a6.16 6.16 0 00-6.15 6.16v2.63H8.91v7h3.51v7.15h-8a2.63 2.63 0 01-2.63-2.63z" fill="#00a0da"/></svg>